<?xml version="1.0" encoding="UTF-8"?>
<svg xmlns="http://www.w3.org/2000/svg" version="1.1" viewBox="0 0 1393.5 824.4">
  <defs>
    <style>
      .cls-1 {
        fill: none;
        stroke: #000;
        stroke-linecap: round;
        stroke-linejoin: round;
        stroke-width: 7.1px;
      }
    </style>
  </defs>
  <!-- Generator: Adobe Illustrator 28.7.1, SVG Export Plug-In . SVG Version: 1.2.0 Build 142)  -->
  <g>
    <g id="_レイヤー_1" data-name="レイヤー_1">
      <g id="_レイヤー_1-2" data-name="_レイヤー_1">
        <g id="_レイヤー_1-2">
          <g id="_レイヤー_2">
            <g>
              <g>
                <path class="cls-1" d="M783.3,145.5s-50.5-15.3-18.4-69.4c-18-9.6-23.8-17.3-26.2-37.2,61.7,34.6,91.6-76,183.3-18.6"/>
                <path class="cls-1" d="M925.4,39.4s17.9-41.4,57.4-9.7c29-11.9,55.7,11.8,53.2,34.6,51.5,30.4,51.5,135.4,27,168.9,7.6,27.9,14.4,36.3,24.5,43.9-42.2-4.2-59.3-12.8-73.6-45.7"/>
                <path class="cls-1" d="M759.8,160.6s-8.8,57,23.4,104.9c-9.3-2.1-13.8,6.8-13.8,11.9s3.3,12.1,3.3,12.1c11,22.8,21.1,32.1,39.6,22.7"/>
                <path class="cls-1" d="M798.9,270.3s15.8,11.1,13.2,60.1c0,9.3,6.8,21.1,22,16.9,8.4,27.9,39.7,36.3,41.4,46.5,2.5,14.5,26.2,26.2,55.7,0,29.6-26.2,121.4-55,82.6-162.3-1.5-4.9,1.3,10.1,0,0"/>
                <path class="cls-1" d="M963.4,193.6c0-40.5,38.9-44.8,53.2-21.1,9.4,15.4,12.4,41.2-2.7,59,3.8,21.1-16.5,34.2-28.6,21.2"/>
                <path class="cls-1" d="M848.7,369.9s27.7-4.9,32.7-24.3"/>
                <path class="cls-1" d="M812.2,272.1s16.3,34.9,36.5,31.3c16.4-3,30.2-11,21.8-39.7-8.4-28.7-16.2-28.8-27.6-24.1-21.1,8.7-36.2,22.7-30.6,32.5h-.1Z"/>
                <path class="cls-1" d="M781,265.2s15.5,1.5,17.9,5.2"/>
                <ellipse cx="842.2" cy="273.2" rx="5.9" ry="10.4" transform="translate(-40.1 347.7) rotate(-22.8)"/>
                <line class="cls-1" x1="865.4" y1="245.9" x2="970" y2="168.6"/>
                <path class="cls-1" d="M993.5,229s27.7-10.5,15-43.5c-12.7-32.9-43.1-4.6-30.4,12.3,12.7,16.9,13.9,14.2,20.8,15.1"/>
                <path class="cls-1" d="M812.2,158s-41.1,8.5-36.3,41.7"/>
                <path class="cls-1" d="M805.4,178.8s13.8,37.1,60,13.2"/>
                <path class="cls-1" d="M741,106.2c-28.7,37.8-27.7,75.7,2.4,117.8"/>
                <path class="cls-1" d="M840.9,181.6s63.7-30.3,105.4,59.5"/>
                <path class="cls-1" d="M764.9,76.1c36,16,24.6-17.7,108.6-18.9"/>
                <path class="cls-1" d="M815.2,137.2s20.1-50.7,92.4-43.9"/>
                <path class="cls-1" d="M958.6,207.3s14.9,38.1,16.5,65.7"/>
                <path class="cls-1" d="M958.6,374.7s27,38.5,34.9,56.5"/>
                <path class="cls-1" d="M958.6,380.5c-15.8,20.3-30.1,81.1,11.4,67.6s51.7-63.1,87.7-109.2c36-46.2,56.3-100.2,105.9-114.9,49.6-14.6,109.2-38.9,107,53.2,58.6,11,75.5,77.4,52.9,106.7,46.2,47.3,66.4,127.7,66.4,234.2"/>
                <path class="cls-1" d="M942.8,385s-42.2,51.8,27.2,109.3"/>
                <path class="cls-1" d="M993.5,555.1s5.4-27.3-10.6-28.2c-61.7-1.7-60.8-96.9-52.7-104.5,0,0-72.8,66.2-36.8,127"/>
                <path class="cls-1" d="M1100.1,277.2s-91.4,139.4-82.4,188c9,48.6,0,29.1,5.9,84.3"/>
                <path class="cls-1" d="M882.4,526.9s-50.4,46.7-40.2,93.5"/>
                <path class="cls-1" d="M840.9,593.4s-43.3,33.8-36.6,61.9c-21,12.4-45,20-45,20"/>
                <path class="cls-1" d="M707.4,683.5c27-13.5,58.2-7.9,86,0"/>
                <path class="cls-1" d="M648.9,689.1c26.7-13.2,71-9.1,89.8,9"/>
                <path class="cls-1" d="M611.7,698.1s22-16.9,53.8,0"/>
                <path class="cls-1" d="M721.5,733c-53.3,0-86.2-16.9-115.4-34.9-39.4-24.8-43.1-4.8-78.3-4.8s-33.8,14.6-64.2,48.4c-10.1,10.6,0,28.6,18.8,13"/>
                <path class="cls-1" d="M534,756.5s13.8-14.8,30.4-4.4,42.3,31.5,101.1,27c28.4-1.1,45.1,11.2,45.1,11.2"/>
                <path class="cls-1" d="M861.4,820.9c-70.6-4.5-117.9-7.9-141.6-19.1-5.6,0-16.5-32.8-5.6-50.8s19.1-43.8,42.8-39.3,73.7,2.3,108.4-4.5,113.3-5,124,2.9"/>
                <path class="cls-1" d="M958.6,722.6s46.5-19.2,70.7-28.2c52.8-19.6,93.8,20.6,117.4,83.7"/>
                <path class="cls-1" d="M1100.1,535.9c4.9-76.6,46.6-153.9,126.6-150.9"/>
                <path class="cls-1" d="M1041.9,460.4c76.6-100.2,157.7-188,281.6-76.5"/>
                <path class="cls-1" d="M1301,401.6c60.8,66.8,41.7,117.5-5.6,191.8-76.1,118.8-91.2,227.5-148.7,227.5"/>
                <path class="cls-1" d="M1058.6,675.3c35.2-22.2,98.2-44.8,124.1-29"/>
                <path class="cls-1" d="M1037.7,689.8s40.3-169.2,150.6-139.9"/>
                <path class="cls-1" d="M1087.5,584.7s1.3-80.3,75.8-90.5"/>
                <line class="cls-1" x1="363.9" y1="820.9" x2="1073.5" y2="820.9"/>
                <polyline class="cls-1" points="363.9 820.9 178.5 792.7 3.5 460.4 182.8 407.8 363.9 778.1 560.5 778.1"/>
                <rect x="418" y="792.7" width="23.7" height="12.4"/>
                <rect x="451.8" y="792.7" width="23.7" height="12.4"/>
                <rect x="486.2" y="792.7" width="23.7" height="12.4"/>
                <rect x="522.2" y="792.7" width="23.7" height="12.4"/>
                <path class="cls-1" d="M545.9,691.4s-25.3-11.3-59.7-16.1c-29.1-4.1-68.2,6-87.9,41.1-10.1,18.1-9,44.5,0,48.9s11.5-6.3,11.3-21.1c0,0,.5-27.8,38.8-46.1"/>
                <path class="cls-1" d="M574.5,727.4c-19.7,0-42.5-6.9-60.8,23.6,0,0-14.6,27.1-24.2,27.1"/>
                <path class="cls-1" d="M573.1,708.1c-41.1-3.1-68.7-1.1-101.6,68.4"/>
                <path class="cls-1" d="M491,708.8c-24-5-61.2,14.5-61.2,43.6-1.7,27.7-20.2,13.6-20.2-8.2"/>
                <path class="cls-1" d="M134.3,752.7"/>
                <path class="cls-1" d="M942.8,584.7s2.7,72.3-4,113.4"/>
                <path class="cls-1" d="M803.9,276.6s4,3.7,8.2-1.7"/>
                <path class="cls-1" d="M908.3,137.2s70.7-54,109.4,0"/>
              </g>
              <path class="cls-1" d="M363.9,778.1"/>
              <path class="cls-1" d="M774.8,249.2s-1.9-1.1,12.6,0"/>
              <path class="cls-1" d="M809,240.9s16.3-22.3,34-19.9"/>
            </g>
          </g>
        </g>
      </g>
    </g>
  </g>
</svg>